<svg xmlns:xlink="http://www.w3.org/1999/xlink" viewBox="0 0 32 32" xmlns="http://www.w3.org/2000/svg" aria-hidden="true" role="presentation" focusable="false" style="display: block; height: 22px; width: 22px; fill: currentcolor;" width="23" height="23"><path d="m15.9999.3335c8.6524795 0 15.6667 7.01422051 15.6667 15.6667 0 8.6524795-7.0142205 15.6667-15.6667 15.6667-8.65247949 0-15.6667-7.0142205-15.6667-15.6667 0-8.65247949 7.01422051-15.6667 15.6667-15.6667zm0 2c-7.54790999 0-13.6667 6.11879001-13.6667 13.6667 0 7.54791 6.11879001 13.6667 13.6667 13.6667 7.54791 0 13.6667-6.11879 13.6667-13.6667 0-7.54790999-6.11879-13.6667-13.6667-13.6667zm1.0001 3v10.0895l8.7375978 5.0444733-.9999956 1.7320534-9.7376022-5.6219748v-11.2440519z" fill="#222222"></path></svg>
